# xmcd
#
# Track frame offsets:
# 150
# 14652
# 30182
# 44847
# 59420
# 74220
# 90290
# 108847
# 127785
# 145065
# 163537
# 179132
# 199762
# 213945
# 229842
#
# Disc length: 3361 seconds
#
#
# Revision: 0
# Processed by: cddbd v1.5.1PL2 Copyright (c) Steve Scherf et al.
# Submitted via: FreeRIP 2.945 
#
DISCID=d40d1f0f
DTITLE=Eliana de Lima - 
DYEAR=1900
DGENRE=
TTITLE0=Volte amanhã
TTITLE1=Desejo de amar
TTITLE2=Guardar você dentro de mim
TTITLE3=Saudade danada
TTITLE4=Fogueira de não se apagar
TTITLE5=Cicatriz do amor
TTITLE6=Louco amor
TTITLE7=Outra vez
TTITLE8=Volta pra ela
TTITLE9=Já é hora de você voltar
TTITLE10=Badabauê
TTITLE11=Retrato falado de você
TTITLE12=Como eu quero
TTITLE13=Olerê
TTITLE14=Estação do amor
EXTD=
EXTT0=
EXTT1=
EXTT2=
EXTT3=
EXTT4=
EXTT5=
EXTT6=
EXTT7=
EXTT8=
EXTT9=
EXTT10=
EXTT11=
EXTT12=
EXTT13=
EXTT14=
PLAYORDER=
